<?xml version="1.0" encoding="utf-8"?>
<!DOCTYPE svg PUBLIC "-//W3C//DTD SVG 1.0//EN" "http://www.w3.org/TR/2001/REC-SVG-20010904/DTD/svg10.dtd">
<svg version="1.0" xmlns="http://www.w3.org/2000/svg" width="707px" height="1131px" viewBox="0 0 707 1131" preserveAspectRatio="xMidYMid meet">
 <g fill="#000000">
  <path d="M237.11 889.94 c-2.92 -1.15 -3.45 -4.77 -1.59 -10.52 1.59 -5.21 6.19 -14.58 9.19 -19.09 1.59 -2.21 1.77 -3.54 1.33 -8.40 -0.71 -7.69 0.53 -11.84 6.80 -23.15 5.21 -9.46 5.30 -9.54 4.68 -15.02 -0.71 -7.34 0.80 -11.67 8.31 -24.13 6.54 -10.60 6.54 -10.52 5.13 -24.75 -1.15 -10.78 -0.18 -13.17 8.31 -20.86 9.28 -8.31 9.90 -10.34 6.72 -19.88 -1.24 -3.89 -2.30 -8.04 -2.30 -9.28 0 -1.24 1.41 -4.60 3.27 -7.51 10.16 -16.53 10.78 -18.47 8.04 -26.16 -2.21 -6.27 -2.47 -13.17 -0.80 -17.23 1.06 -2.56 0.97 -3.09 -0.71 -5.48 -1.33 -1.86 -3 -2.83 -5.21 -3.27 -6.72 -1.24 -10.34 -4.42 -12.46 -11.05 -0.88 -2.74 -1.59 -3.36 -4.15 -3.80 -4.68 -0.88 -8.84 -5.13 -9.99 -10.07 -0.53 -2.30 -0.88 -5.30 -0.88 -6.80 0.09 -1.41 -1.41 -5.74 -3.18 -9.63 -4.15 -8.84 -4.86 -14.67 -2.39 -20.15 1.24 -2.92 1.77 -5.83 1.68 -10.52 -0.09 -3.62 0.44 -8.48 1.06 -10.78 0.97 -3.45 1.06 -5.39 0.18 -10.25 -0.97 -5.21 -0.88 -6.54 0.35 -9.46 0.80 -1.86 2.21 -4.24 3.18 -5.30 1.59 -1.68 1.68 -2.21 0.71 -5.83 -1.33 -4.95 -0.62 -7.87 3 -12.02 1.94 -2.12 3.27 -4.95 3.98 -7.95 0.62 -2.92 2.56 -6.80 4.77 -9.99 l3.62 -5.30 -0.97 -7.69 c-1.15 -8.66 -0.71 -11.05 3 -17.41 2.21 -3.89 2.39 -4.51 1.41 -8.04 -1.68 -6.10 -1.24 -9.63 1.59 -16 1.50 -3.18 2.65 -6.10 2.65 -6.54 0 -0.35 -0.97 -2.21 -2.21 -3.98 -3.89 -5.74 -2.83 -11.84 3.80 -21.83 2.03 -3 2.12 -3.62 1.24 -6.72 -1.59 -5.04 -1.33 -7.95 1.24 -13.34 2.12 -4.51 2.21 -5.13 1.15 -9.46 -1.06 -4.60 -1.06 -4.77 1.94 -14.94 1.77 -5.83 1.06 -6.54 -6.89 -6.54 -10.52 -0.09 -16.17 -3.18 -16.17 -9.01 0 -1.15 0.62 -2.92 1.33 -3.98 1.24 -1.77 1.15 -2.21 -0.88 -5.21 -3.09 -4.51 -2.92 -7.78 0.71 -11.31 4.15 -4.24 11.14 -5.39 32.43 -5.39 18.82 0 21.92 0.53 26.87 4.95 3.71 3.18 5.30 6.98 8.04 18.91 1.24 5.66 3.54 12.55 5.48 16.53 l3.36 6.89 3.09 -0.71 c1.68 -0.35 9.10 -0.53 16.35 -0.53 10.34 0.09 14.67 0.53 19.71 1.94 l6.45 1.77 0.88 -2.12 c4.07 -10.78 7.25 -22.09 7.60 -27.31 0.27 -3.36 1.06 -6.98 1.77 -8.04 0.62 -0.97 1.77 -3.80 2.47 -6.19 1.50 -5.21 4.77 -8.66 10.07 -10.43 8.57 -3.09 39.59 -2.47 46.22 0.88 5.83 2.92 7.69 8.31 4.51 13.70 -1.41 2.30 -1.41 2.56 0 4.15 2.03 2.21 1.94 6.54 -0.18 9.19 -1.86 2.39 -6.98 4.24 -11.67 4.24 -4.15 0 -4.68 0.62 -6.27 6.63 -0.71 2.92 -2.39 8.22 -3.71 11.67 -2.65 7.25 -2.83 11.84 -0.97 18.82 1.59 5.74 1.68 11.49 0.35 16.26 -0.88 3.09 -0.71 3.98 1.41 8.13 2.03 3.98 2.30 5.39 1.86 8.75 -0.53 3.27 -0.27 4.51 1.24 6.63 2.83 3.98 3.18 8.22 1.06 11.93 l-1.86 3.09 1.94 3.27 c1.68 2.92 1.94 4.77 2.03 13.96 0.09 5.83 -0.18 11.40 -0.53 12.46 -0.53 1.24 -0.27 3.54 0.53 6.19 0.88 2.92 1.24 7.16 1.06 12.81 -0.18 8.13 -0.09 8.66 2.39 12.37 2.03 3 2.65 4.95 2.65 8.31 0 3 0.71 5.39 2.03 7.51 1.41 2.30 1.94 4.24 1.86 7.51 -0.09 2.47 0.53 6.10 1.33 8.22 1.15 3.09 1.24 4.51 0.44 7.42 -0.80 3.27 -0.71 4.07 1.41 8.04 2.03 3.71 2.39 5.04 1.94 8.75 -0.35 3.09 -0.18 5.21 0.71 6.98 1.94 3.71 1.59 7.95 -0.97 12.81 -1.86 3.27 -2.47 6.19 -2.92 11.93 -0.71 8.57 -2.92 13.08 -8.04 16.08 -1.94 1.15 -2.65 2.30 -2.65 4.07 0 4.51 -1.86 8.04 -5.39 10.34 -1.94 1.15 -3.45 2.83 -3.45 3.71 0 0.80 -1.15 3.54 -2.56 6.01 -2.83 4.86 -6.72 7.42 -11.49 7.42 -1.68 0 -2.74 0.44 -2.74 1.24 0 0.62 -0.97 2.56 -2.03 4.24 -1.77 2.56 -2.21 4.60 -2.74 13.79 -0.62 12.20 -0.09 14.41 5.92 22.89 5.57 7.60 6.10 10.34 5.48 25.19 l-0.62 12.99 4.24 9.10 4.33 9.10 0 14.14 0 14.14 3.45 6.54 c3.71 7.07 3.71 7.16 1.77 26.60 -0.44 4.24 0 6.19 3.54 15.55 2.83 7.60 4.33 13.17 5.04 19 1.59 13.61 3.09 20.59 6.01 27.13 3 6.80 3.36 9.63 1.59 12.02 -1.41 1.86 -6.72 1.68 -7.78 -0.35 -0.44 -0.71 -2.21 -5.13 -3.98 -9.72 -2.47 -6.45 -3.62 -11.49 -4.95 -21.65 -1.59 -12.28 -2.74 -16.61 -7.95 -30.49 -1.86 -4.95 -1.86 -9.19 -0.18 -23.95 0.53 -4.60 0.27 -5.39 -3.27 -12.28 -4.24 -8.13 -4.68 -11.49 -3.09 -26.16 l0.80 -7.16 -4.33 -8.75 -4.33 -8.75 0 -15.47 0 -15.47 -5.04 -8.40 c-6.45 -10.96 -7.25 -13.52 -6.72 -22.98 l0.44 -7.69 -7.42 -1.15 -7.42 -1.15 -3.80 3.71 c-4.33 4.24 -8.04 5.48 -13.34 4.24 -2.39 -0.53 -5.04 -0.44 -8.04 0.27 -4.77 1.15 -9.28 0.35 -13.17 -2.30 -2.39 -1.68 -3.45 -1.59 -7.25 1.06 -2.92 1.94 -3.89 2.21 -7.34 1.68 -2.21 -0.35 -6.45 -0.62 -9.46 -0.53 -7.16 0.18 -12.02 -1.15 -17.50 -4.77 -2.92 -1.94 -6.01 -3.18 -9.01 -3.54 l-4.60 -0.62 -1.06 3.71 c-0.97 3.18 -0.88 4.24 0.97 9.37 3.45 9.99 1.86 16.79 -6.98 29.96 -4.15 6.01 -4.33 7.51 -1.86 15.29 3.45 10.96 2.21 15.20 -7.16 24.21 -3.80 3.71 -7.42 7.87 -7.95 9.28 -0.62 1.77 -0.62 4.95 0.18 11.40 0.53 4.95 0.80 10.34 0.44 12.11 -0.27 1.68 -2.56 6.36 -5.13 10.43 -7.87 12.99 -8.93 16 -8.31 23.24 l0.53 6.27 -4.77 8.66 c-7.25 12.99 -7.95 15.20 -7.16 23.15 l0.62 6.72 -3.71 6.10 c-4.51 7.42 -7.87 15.47 -7.95 18.74 0 1.50 -0.88 3 -2.30 4.15 -2.65 2.03 -2.65 2.03 -5.39 0.97z m111.97 -225.80 c2.56 -1.68 5.13 -3.09 5.74 -3.09 0.62 0 3.36 1.24 6.27 2.74 4.86 2.65 5.30 2.74 9.54 1.68 3.27 -0.80 5.21 -0.80 6.98 -0.09 4.33 1.68 6.10 1.15 11.31 -3.89 2.83 -2.65 5.66 -4.86 6.27 -4.86 0.71 0 3.54 0.62 6.27 1.33 7.25 1.86 10.60 1.68 12.73 -0.62 2.65 -2.92 3.80 -5.57 3.80 -8.57 0 -6.63 3.89 -9.37 7.51 -5.39 3.36 3.71 7.07 0.97 9.72 -7.07 0.97 -2.83 2.47 -5.04 4.42 -6.54 2.21 -1.68 3.09 -3.18 3.54 -6.01 0.97 -6.19 1.24 -6.72 4.42 -7.78 4.60 -1.50 5.74 -3.80 5.74 -11.31 0 -5.39 0.44 -7.25 2.65 -11.67 3 -5.92 3.27 -8.48 1.24 -11.31 -1.06 -1.59 -1.33 -3.18 -0.80 -6.80 0.53 -4.24 0.27 -5.13 -1.86 -8.40 -2.39 -3.54 -2.39 -3.80 -1.41 -8.93 1.06 -4.77 0.97 -5.48 -0.71 -8.84 -1.41 -2.65 -1.77 -4.51 -1.33 -6.89 0.44 -2.83 0.18 -3.80 -1.86 -6.19 -1.94 -2.39 -2.30 -3.45 -1.94 -6.72 0.44 -3.36 0.09 -4.42 -2.21 -7.60 -2.74 -3.62 -2.74 -3.80 -2.47 -13.79 0.09 -7.07 -0.27 -11.58 -1.15 -14.85 -1.24 -4.07 -1.24 -5.13 -0.18 -8.22 0.97 -2.65 1.06 -4.42 0.44 -6.54 -0.44 -1.59 -0.62 -4.86 -0.35 -7.34 0.44 -4.07 0.27 -4.68 -2.65 -8.31 -3.45 -4.33 -3.45 -5.83 0.09 -10.07 2.56 -3 2.56 -3.36 0.44 -6.01 -3.27 -4.33 -3.71 -5.92 -2.74 -9.72 0.88 -3.36 0.80 -3.89 -1.86 -7.95 l-2.83 -4.42 1.50 -5.21 c1.86 -6.89 1.77 -9.10 -0.53 -15.64 -1.94 -5.48 -2.03 -5.57 -0.44 -12.99 0.80 -4.15 2.74 -10.43 4.15 -14.05 1.41 -3.54 2.83 -8.13 3.18 -10.25 0.71 -4.60 2.56 -5.92 9.72 -6.72 2.92 -0.35 5.92 -0.97 6.63 -1.41 1.59 -0.97 1.24 -0.97 -9.46 -0.80 -11.75 0.18 -18.91 -2.12 -18.91 -6.19 0 -2.21 1.50 -2.56 6.63 -1.68 7.69 1.24 21.30 -1.94 22.36 -5.13 0.44 -1.59 -8.04 -2.30 -23.15 -1.86 -18.82 0.44 -18.74 0.35 -22.18 17.67 -2.65 12.90 -9.72 34.73 -12.02 37.03 -2.74 2.74 -5.57 2.83 -12.55 0.44 -13.79 -4.77 -33.58 -5.04 -39.68 -0.53 -2.30 1.68 -2.65 1.68 -5.04 0.44 -1.68 -0.80 -3.45 -3 -4.86 -6.19 -3.27 -6.89 -8.22 -21.92 -9.90 -30.14 -2.56 -12.64 -3.36 -13.08 -27.31 -12.55 -17.23 0.44 -22.89 1.41 -21.92 3.89 0.88 2.39 7.34 3.27 20.41 2.74 11.75 -0.44 12.81 -0.35 14.41 1.24 0.88 0.88 1.68 2.03 1.68 2.56 0 2.03 -4.42 3.45 -12.81 3.89 -15.29 0.97 -19.88 1.50 -19.35 2.39 0.27 0.44 3.36 0.62 7.42 0.27 6.80 -0.62 6.98 -0.53 9.54 1.94 1.59 1.68 3 4.33 3.71 7.34 0.97 4.24 0.97 5.21 -0.97 10.69 -1.86 5.66 -1.94 6.45 -0.88 11.75 1.06 5.57 1.06 5.66 -1.68 10.96 -2.56 4.86 -2.74 5.66 -1.86 8.75 1.50 5.39 1.24 6.63 -3 13.61 -5.39 9.01 -5.66 11.05 -2.30 16.35 1.50 2.39 2.74 4.86 2.74 5.48 0 0.71 -1.15 3.45 -2.56 6.27 -3.62 7.25 -3.98 9.90 -2.21 15.64 l1.59 5.04 -3.27 6.01 c-3.62 6.63 -4.07 9.99 -1.94 15.91 1.94 5.66 1.68 6.80 -3.09 13.87 -3.45 4.95 -4.60 7.42 -5.04 10.96 -0.44 3.54 -1.24 5.39 -3.98 8.57 -2.12 2.39 -3.27 4.51 -3 5.39 0.27 0.80 0.97 3.09 1.59 5.21 l1.06 3.71 -3.89 3.98 -3.89 3.98 1.15 6.98 c1.06 6.27 0.97 7.51 -0.35 11.58 -1.06 3.27 -1.41 6.36 -1.15 10.87 0.35 4.95 0.09 7.07 -1.24 9.63 -2.65 5.48 -2.12 9.54 1.94 14.76 3.36 4.24 3.54 4.68 3.54 10.96 0 3.80 0.44 7.07 1.06 7.95 0.62 0.88 3.09 2.03 5.57 2.65 l4.42 1.06 2.21 6.19 2.21 6.19 4.86 0.44 c4.42 0.44 5.04 0.71 7.78 4.42 3.54 4.68 9.10 7.60 16.08 8.48 3.18 0.35 5.57 1.24 7.07 2.56 4.68 4.15 6.63 4.95 11.14 4.42 2.39 -0.35 5.30 -0.18 6.54 0.35 3.54 1.41 4.86 1.15 9.72 -2.12z"/>
  <path d="M358.36 608.02 c-6.01 -1.06 -11.40 -3.27 -13.26 -5.30 -1.33 -1.50 -1.41 -2.12 -0.62 -3.98 1.41 -3.09 3.18 -3.54 7.60 -1.86 9.90 3.80 19.27 3.54 30.05 -0.80 4.60 -1.86 6.19 -2.12 7.60 -1.33 2.65 1.41 2.39 5.74 -0.44 7.60 -7.07 4.68 -21.65 7.34 -30.93 5.66z"/>
  <path d="M366.76 563.92 c-0.71 -0.53 -1.59 -0.62 -1.94 -0.44 -0.35 0.27 -0.71 0.09 -0.71 -0.35 0 -0.44 -2.74 -1.06 -6.01 -1.33 -18.21 -1.50 -29.16 -11.49 -29.34 -26.78 0 -9.63 7.07 -19.44 17.94 -24.48 15.02 -6.98 37.65 -5.92 48.52 2.30 11.67 8.75 11.40 26.95 -0.62 37.56 -4.42 3.89 -13.43 8.48 -19.53 9.99 -5.48 1.33 -7.60 2.39 -6.98 3.54 0.71 0.97 0.35 0.97 -1.33 0z m24.83 -37.12 c1.77 -1.41 1.94 -1.94 1.06 -3.80 -1.06 -2.39 -6.72 -5.57 -8.66 -4.77 -1.86 0.71 -4.07 4.51 -3.54 6.10 0.62 1.50 5.39 4.07 7.60 4.15 0.80 0 2.39 -0.71 3.54 -1.68z"/>
  <path d="M339.09 471.04 c-3.36 -2.65 -5.30 -9.54 -4.86 -17.14 0.53 -8.04 2.65 -12.73 6.63 -14.41 9.19 -3.80 16.26 10.16 12.28 23.95 -0.88 2.83 -2.47 6.10 -3.62 7.25 -2.65 2.65 -7.25 2.83 -10.43 0.35z"/>
  <path d="M379.39 469.71 c-2.83 -2.03 -5.04 -8.75 -5.04 -15.38 0.09 -9.10 3.89 -16.17 9.37 -17.41 6.63 -1.41 9.99 4.77 9.37 17.06 -0.44 8.93 -2.30 13.79 -6.10 15.73 -3.18 1.68 -5.21 1.68 -7.60 0z"/>
  <path d="M326.10 426.85 c-1.15 -2.12 0.35 -5.39 4.60 -10.16 7.34 -8.40 17.67 -10.43 25.98 -5.04 4.60 2.92 6.89 6.19 6.01 8.57 -0.97 2.47 -3.71 2.39 -7.69 -0.35 -2.12 -1.41 -4.95 -2.92 -6.19 -3.18 -3.36 -0.88 -9.37 2.30 -14.14 7.51 -4.33 4.68 -7.07 5.57 -8.57 2.65z"/>
  <path d="M371.88 423.23 c-2.21 -1.24 -1.94 -5.21 0.62 -8.66 5.57 -7.69 14.05 -10.07 21.03 -6.01 5.48 3.27 10.34 8.84 10.34 12.02 0 4.95 -4.86 4.15 -10.16 -1.68 -2.12 -2.30 -5.92 -4.42 -8.04 -4.42 -0.80 0 -3.62 2.21 -6.27 4.86 -5.13 5.21 -5.21 5.30 -7.51 3.89z"/>
 </g>
</svg>